<?xml version="1.0" encoding="iso-8859-1"?>
<!-- Generator: Adobe Illustrator 19.0.0, SVG Export Plug-In . SVG Version: 6.00 Build 0)  -->
<svg version="1.1" id="Layer_1" xmlns="http://www.w3.org/2000/svg" xmlns:xlink="http://www.w3.org/1999/xlink" x="0px" y="0px"
	 viewBox="0 0 508 508" style="enable-background:new 0 0 508 508;" xml:space="preserve">
<g>
	<g>
		<path d="M505.528,132.4l-130-130c-3.2-3.2-8-3.2-11.2,0l-254.4,254.4c0,0,0,0-0.4,0.4c-0.4,0.4-0.4,0.4-0.4,0.8
			c-0.4,0.8-0.8,1.6-1.2,2.4L0.728,496.8c-1.2,3.2-0.8,6.4,1.6,8.8c1.6,1.6,3.6,2.4,5.6,2.4c1.2,0,2.4-0.4,3.2-0.8l236-106.8
			c1.2-0.4,2.4-0.8,3.6-2c0.4-0.4,0.4-0.8,0.8-0.8l254-254C508.728,140.4,508.728,135.6,505.528,132.4z M239.528,386l-120,54.4
			l-52-52.8l54-120c8.8-8,22.8-7.6,31.2,0.8c8.8,8.8,8.8,22.8,0.4,31.6c-0.8,0.8-1.2,1.2-1.6,1.6c-2,3.2-2,7.2,0.8,10
			c1.6,1.6,3.6,2.4,5.6,2.4s4-0.8,5.6-2.4c0.4-0.4,0.4-0.4,0.8-0.8c4.4-4,9.6-6.4,15.6-6.4s11.6,2.4,16,6.8c4.4,4.4,6.8,10,6.8,16
			s-2.4,11.6-6.8,16c0,0,0,0-0.4,0.4c-3.2,3.2-3.2,8,0,11.2s8,3.2,11.2,0c8.8-8.8,23.2-8.8,32,0
			C247.128,363.2,247.528,376.8,239.528,386z"/>
	</g>
</g>
<g>
</g>
<g>
</g>
<g>
</g>
<g>
</g>
<g>
</g>
<g>
</g>
<g>
</g>
<g>
</g>
<g>
</g>
<g>
</g>
<g>
</g>
<g>
</g>
<g>
</g>
<g>
</g>
<g>
</g>
</svg>
